<svg id="Calque_1" data-name="Calque 1" xmlns="http://www.w3.org/2000/svg" viewBox="0 0 268.62 268.62"><defs><style>.cls-1{fill:#ccc;}</style></defs><title>Plan de travail 6 copie 8</title><path class="cls-1" d="M164.83,207c-6.68-.21-13.34-.28-19.89,1.48-1.51.41-3.6,1-4.44-.74-1.06-2.18,1.24-3,2.59-4,3.16-2.4,6.85-3.7,10.57-4.91,17.49-5.68,35-11.21,52.44-17.14,9.87-3.36,11.36-9,4.94-17.41-4.16-5.42-8.65-10.57-13-15.86-.71-.86-1.68-1.74-1-3s1.92-1,3.06-.84c12.31,1.27,32.11,18.82,35.15,31.15,2.68,10.88-1.66,19.32-12.13,24.07-7.42,3.37-15.38,4-23.29,4.91-5.81.64-11.69.73-17.49,1.4A142.78,142.78,0,0,1,164.83,207Z"/><path class="cls-1" d="M125.57,199.15a29.94,29.94,0,0,1-12.84-2c-4.92-1.88-7-5.9-5.42-10.91a44.61,44.61,0,0,0,2-14.42c-.09-4.61-2-7.31-6.76-8-2.16-.31-4.94-.34-5.61-3.08-.76-3.14,1.88-4.64,3.93-6.15,3.14-2.33,6.42-4.5,10.62-4.37,3.55.1,5.41,1.63,3.92,5.25-3,7.3-1.63,14.4.71,21.44,2,6,5.83,7.77,11.37,4.67,5.94-3.32,11.33-7.62,17.15-11.18A150.65,150.65,0,0,1,181,153.92c2.11-.61,5-2.22,6.41-.35,1.72,2.24-.81,4.49-2.24,6.33-5.95,7.63-13.55,13.55-21,19.55-5.33,4.28-11,8.1-16.36,12.37A31.85,31.85,0,0,1,125.57,199.15Z"/><path class="cls-1" d="M67.71,105.28c3.5-.29,3.83,2.36,4.34,4.76,3,14.19,5.82,28.42,9,42.57,3.32,15,7.52,29.7,11.86,44.4a30.19,30.19,0,0,0,2,4.42c.68,1.44,2,3,.15,4.33a3.34,3.34,0,0,1-4.85-.58c-5-6.82-11.75-12.5-15-20.37-8.49-20.5-14.69-41.82-21-63.06C51.75,113.75,58.9,105.37,67.71,105.28Z"/><path class="cls-1" d="M177.9,116.77c.56,5-1.72,9.55-5.5,13.5-3.15,3.3-2.82,4.84,1.52,6.66,2.55,1.07,5.24,1.81,7.84,2.76.89.32,2,.69,2,1.89s-1.09,1.55-2,1.67c-12.83,1.54-25,.14-35.62-8.06-2.65-2-3-3.84.69-5.1,2-.69,3.95-1.53,6-2.16,6.92-2.12,9.82-7.33,10.11-14,.28-6.47-3.18-11-8.65-14.26-2-1.21-6.23-1.28-5.4-4.36.66-2.43,4.51-1.83,7.07-1.87C169.93,93.25,177.72,101.32,177.9,116.77Z"/><path class="cls-1" d="M32.69,158.38A106.58,106.58,0,0,1,38.77,129a11.11,11.11,0,0,1,1.6-3c.82-1.12,1.58-2.89,3.34-2.13,1.46.62,1,2.3.76,3.5-1.34,6.9.06,13.63,1.32,20.32,1.49,7.92,5,14.8,12.08,19.25,3.21,2,1.68,3.18-.64,4.29C44.27,177.43,31.25,170.75,32.69,158.38Z"/><path class="cls-1" d="M45.71,79.59c-.12-3.64,1.76-7.76,4.11-11.7,1.6-2.69,3.23-2.31,4.67.16a73.55,73.55,0,0,1,8.45,22.22c.72,3.48-1.48,5.94-4.4,7.38-3.25,1.62-6.14.37-8.15-2.35C47.21,91,45.77,86.05,45.71,79.59Z"/><path class="cls-1" d="M147.51,72.92c.79-3.16,1.78-7.24,2.83-11.31.46-1.8,1.67-2.28,3.35-1.67a11.4,11.4,0,0,1,5.69,4.37,33.92,33.92,0,0,1,5.31,14.52c.73,4.76-2.59,7.34-7.19,6C149.53,82.62,147.31,80.19,147.51,72.92Z"/><path class="cls-1" d="M107.77,107.22c5.67.65,11.14,1.42,16.64,1.86,4.42.36,5,3,4.17,6.45a8.55,8.55,0,0,1-9.05,6c-5.68-1-11-3-14.79-7.72-1.22-1.51-2.71-3.2-1.65-5.24S106.24,107.37,107.77,107.22Z"/><path class="cls-1" d="M119.83,81.75c4.14,1,8.87,2.19,13.07,4.7,2.55,1.53,3.37,4.29,3.7,7.09.38,3.28-1.24,4.78-4.5,4.79-6,0-14.79-7.12-16.21-13C115.14,82.26,116.64,81.6,119.83,81.75Z"/><path class="cls-1" d="M185.78,86.62a29.51,29.51,0,0,1,3.88,0c2.56.36,3,1.82,1.39,3.68-2.09,2.46-4.16,5-7,6.72-3.23,2-6.16,1.84-8.24-1.77-1.76-3-.52-5.92,3.28-7.74A13.51,13.51,0,0,1,185.78,86.62Z"/><path class="cls-1" d="M193,109c2.3.42,5.05-.81,5.78,2,.63,2.41-1.51,3.85-3.32,4.86-3.37,1.87-6.86,4.35-10.61.72a4.61,4.61,0,0,1-1.67-4.36c.4-1.78,2-1.92,3.44-2.18C188.9,109.59,191.14,109.25,193,109Z"/></svg>