<svg id="Calque_1" data-name="Calque 1" xmlns="http://www.w3.org/2000/svg" viewBox="0 0 201 201"><title>Plan de travail 6</title><path d="M182,95.4V91.78h7a3.19,3.19,0,0,0,3.19-3.19V78.17h3.61A3.19,3.19,0,0,0,199,75V64.77A3.18,3.18,0,0,0,197.36,62L102.08,7.55a3.18,3.18,0,0,0-3.16,0L3.64,62A3.18,3.18,0,0,0,2,64.77V75a3.19,3.19,0,0,0,3.19,3.19H8.84V88.59A3.19,3.19,0,0,0,12,91.78h7V95.4a6.59,6.59,0,0,0,3.41,5.76v59.1H12a3.19,3.19,0,0,0-3.19,3.19v10.43H5.22A3.19,3.19,0,0,0,2,177.07v13.61a3.19,3.19,0,0,0,3.19,3.19H195.78a3.19,3.19,0,0,0,3.19-3.19V177.07a3.19,3.19,0,0,0-3.19-3.19h-3.61V163.45a3.19,3.19,0,0,0-3.19-3.19H178.55v-59.1A6.59,6.59,0,0,0,182,95.4Zm-6.38,0a.22.22,0,0,1-.22.21H161.75a.22.22,0,0,1-.21-.21V91.78h14Zm-31.05,64.86v-59.1a6.6,6.6,0,0,0,3.4-5.76V91.78h7.23V95.4a6.6,6.6,0,0,0,3.4,5.76v59.1Zm-13.62,0V102h7.24v58.27Zm-20.41,0v-59.1a6.6,6.6,0,0,0,3.4-5.76V91.78h7.23V95.4a6.6,6.6,0,0,0,3.4,5.76v59.1Zm-13.62,0V102h7.24v58.27Zm-20.41,0v-59.1a6.6,6.6,0,0,0,3.4-5.76V91.78H87.1V95.4a6.6,6.6,0,0,0,3.4,5.76v59.1Zm-13.62,0V102h7.24v58.27Zm-20.41,0v-59.1a6.58,6.58,0,0,0,3.4-5.76V91.78h7.23V95.4a6.6,6.6,0,0,0,3.4,5.76v59.1ZM73.49,91.78V95.4a.21.21,0,0,1-.21.21H59.66a.22.22,0,0,1-.21-.21V91.78Zm34,0V95.4a.22.22,0,0,1-.21.21H93.69a.22.22,0,0,1-.21-.21V91.78Zm34,0V95.4a.22.22,0,0,1-.21.21H127.72a.22.22,0,0,1-.21-.21V91.78ZM8.41,66.62,100.5,14l92.09,52.62v5.17H8.41Zm6.81,11.55H185.79V85.4H15.22ZM39.46,91.78V95.4a.21.21,0,0,1-.21.21H25.64a.22.22,0,0,1-.22-.21V91.78ZM28.83,102h7.23v58.27H28.83Zm163.76,85.5H8.41v-7.23H192.59Zm-6.8-13.61H15.22v-7.24H185.79Zm-20.85-13.62V102h7.23v58.27Zm0,0"/></svg>