<svg id="Calque_1" data-name="Calque 1" xmlns="http://www.w3.org/2000/svg" viewBox="0 0 201 201"><title>Plan de travail 6 copie</title><path d="M191.39,188.25H172.58V84.83a3.13,3.13,0,0,0-3.13-3.13H125.57V9.61a3.13,3.13,0,0,0-3.13-3.13H41a3.13,3.13,0,0,0-3.13,3.13V188.25H9.61a3.14,3.14,0,0,0,0,6.27H191.39a3.14,3.14,0,0,0,0-6.27ZM44.09,12.75H119.3v69H88a3.13,3.13,0,0,0-3.13,3.13V188.25H78.56v-28.2a9.4,9.4,0,0,0-9.4-9.41H62.89a9.4,9.4,0,0,0-9.4,9.41v28.2h-9.4Zm15.67,175.5v-28.2a3.13,3.13,0,0,1,3.13-3.14h6.27a3.13,3.13,0,0,1,3.13,3.14v28.2Zm31.34,0V88h75.21V188.25Z"/><path d="M88,75.43h18.81a3.13,3.13,0,0,0,3.13-3.14V53.49a3.13,3.13,0,0,0-3.13-3.13H88a3.13,3.13,0,0,0-3.13,3.13v18.8A3.13,3.13,0,0,0,88,75.43ZM91.1,56.62h12.53V69.16H91.1Z"/><path d="M88,44.09h18.81A3.13,3.13,0,0,0,109.9,41V22.15A3.13,3.13,0,0,0,106.77,19H88a3.13,3.13,0,0,0-3.13,3.13V41A3.13,3.13,0,0,0,88,44.09ZM91.1,25.28h12.53V37.82H91.1Z"/><path d="M56.62,75.43H75.43a3.13,3.13,0,0,0,3.13-3.14V53.49a3.13,3.13,0,0,0-3.13-3.13H56.62a3.13,3.13,0,0,0-3.13,3.13v18.8A3.13,3.13,0,0,0,56.62,75.43Zm3.14-18.81H72.29V69.16H59.76Z"/><path d="M56.62,44.09H75.43A3.13,3.13,0,0,0,78.56,41V22.15A3.13,3.13,0,0,0,75.43,19H56.62a3.13,3.13,0,0,0-3.13,3.13V41A3.13,3.13,0,0,0,56.62,44.09Zm3.14-18.81H72.29V37.82H59.76Z"/><path d="M56.62,106.77H75.43a3.14,3.14,0,0,0,3.13-3.14V84.83a3.13,3.13,0,0,0-3.13-3.13H56.62a3.13,3.13,0,0,0-3.13,3.13v18.8A3.14,3.14,0,0,0,56.62,106.77ZM59.76,88H72.29V100.5H59.76Z"/><path d="M56.62,138.11H75.43A3.14,3.14,0,0,0,78.56,135v-18.8A3.13,3.13,0,0,0,75.43,113H56.62a3.13,3.13,0,0,0-3.13,3.13V135A3.14,3.14,0,0,0,56.62,138.11Zm3.14-18.81H72.29v12.54H59.76Z"/><path d="M153.78,125.57H135a3.13,3.13,0,0,0-3.13,3.14v18.8a3.13,3.13,0,0,0,3.13,3.13h18.81a3.13,3.13,0,0,0,3.13-3.13v-18.8A3.13,3.13,0,0,0,153.78,125.57Zm-3.14,18.81H138.11V131.84h12.53Z"/><path d="M153.78,94.23H135a3.14,3.14,0,0,0-3.13,3.14v18.8A3.13,3.13,0,0,0,135,119.3h18.81a3.13,3.13,0,0,0,3.13-3.13V97.37A3.14,3.14,0,0,0,153.78,94.23ZM150.64,113H138.11V100.5h12.53Z"/><path d="M153.78,156.91H135a3.13,3.13,0,0,0-3.13,3.14v18.8A3.13,3.13,0,0,0,135,182h18.81a3.13,3.13,0,0,0,3.13-3.13v-18.8A3.13,3.13,0,0,0,153.78,156.91Zm-3.14,18.81H138.11V163.18h12.53Z"/><path d="M122.44,125.57H103.63a3.13,3.13,0,0,0-3.13,3.14v18.8a3.13,3.13,0,0,0,3.13,3.13h18.81a3.13,3.13,0,0,0,3.13-3.13v-18.8A3.13,3.13,0,0,0,122.44,125.57Zm-3.14,18.81H106.77V131.84H119.3Z"/><path d="M122.44,94.23H103.63a3.14,3.14,0,0,0-3.13,3.14v18.8a3.13,3.13,0,0,0,3.13,3.13h18.81a3.13,3.13,0,0,0,3.13-3.13V97.37A3.14,3.14,0,0,0,122.44,94.23ZM119.3,113H106.77V100.5H119.3Z"/><path d="M122.44,156.91H103.63a3.13,3.13,0,0,0-3.13,3.14v18.8a3.13,3.13,0,0,0,3.13,3.13h18.81a3.13,3.13,0,0,0,3.13-3.13v-18.8A3.13,3.13,0,0,0,122.44,156.91Zm-3.14,18.81H106.77V163.18H119.3Z"/></svg>