<svg id="Calque_1" data-name="Calque 1" xmlns="http://www.w3.org/2000/svg" xmlns:xlink="http://www.w3.org/1999/xlink" viewBox="0 0 201 201"><defs><style>.cls-1{fill:none;}.cls-2{clip-path:url(#clip-path);}</style><clipPath id="clip-path"><rect class="cls-1" x="2.69" y="12.91" width="195.62" height="175.17"/></clipPath></defs><title>Plan de travail 6 copie 2</title><g class="cls-2"><path d="M152.07,86.47s0-.08,0-.11a5.12,5.12,0,0,0-.1-.54h0a4,4,0,0,0-.16-.49l-.06-.13a3.59,3.59,0,0,0-.17-.34l-.08-.15a.56.56,0,0,0-.05-.08,3.21,3.21,0,0,0-.21-.3.1.1,0,0,0,0,0,4.71,4.71,0,0,0-.35-.41l-.08-.07c-.1-.1-.22-.2-.33-.29l-.1-.07a3.08,3.08,0,0,0-.48-.32L84.7,46.1l37.5-23.61,62.86,35.73L158.59,74.89a4.42,4.42,0,1,0,4.71,7.48L196,61.77a4.42,4.42,0,0,0-.17-7.59L124.27,13.49a4.43,4.43,0,0,0-4.54.11l-46,28.93,0,0L50.78,57l0,0-46,29a4.41,4.41,0,0,0,.17,7.58l71.59,40.69a4.34,4.34,0,0,0,2.18.58,4.46,4.46,0,0,0,2.36-.68l32.72-20.61a4.42,4.42,0,1,0-4.71-7.48l-30.49,19.2L15.72,89.54l37.5-23.62L120.27,104v50.48a4.42,4.42,0,0,0,6.77,3.74l23-14.48A4.43,4.43,0,0,0,152.1,140V86.91l0-.44Zm-23,60v-45a4.43,4.43,0,0,0-2.24-3.84l-65.17-37,14.51-9.13,62.87,35.73-5.51,3.46a4.43,4.43,0,0,0,2.36,8.17,4.38,4.38,0,0,0,2.35-.68l5-3.14v42.6Zm0,0"/><path d="M191.31,72l-32.72,20.6a4.42,4.42,0,1,0,4.71,7.49L196,79.45A4.42,4.42,0,1,0,191.31,72Zm0,0"/><path d="M109.07,123.76,78.58,143,9.3,103.57a4.42,4.42,0,0,0-4.37,7.69L76.51,152a4.51,4.51,0,0,0,2.19.58,4.4,4.4,0,0,0,2.35-.68l32.73-20.61a4.42,4.42,0,1,0-4.71-7.48Zm0,0"/><path d="M191.31,89.65l-32.72,20.61a4.42,4.42,0,1,0,4.71,7.48L196,97.13a4.42,4.42,0,1,0-4.71-7.48Zm0,0"/><path d="M109.07,141.44l-30.49,19.2L9.3,121.25a4.42,4.42,0,1,0-4.37,7.69l71.58,40.69a4.41,4.41,0,0,0,4.54-.1l32.73-20.61a4.42,4.42,0,1,0-4.71-7.48Zm0,0"/><path d="M191.31,107.33l-32.72,20.61a4.42,4.42,0,1,0,4.71,7.48L196,114.82a4.42,4.42,0,0,0-4.71-7.49Zm0,0"/><path d="M109.07,159.12l-30.49,19.2L9.3,138.94a4.42,4.42,0,1,0-4.37,7.68l71.58,40.69a4.41,4.41,0,0,0,4.54-.1l32.73-20.61a4.42,4.42,0,1,0-4.71-7.48Zm0,0"/></g></svg>