<svg id="Calque_1" data-name="Calque 1" xmlns="http://www.w3.org/2000/svg" xmlns:xlink="http://www.w3.org/1999/xlink" viewBox="0 0 201 201"><defs><style>.cls-1{fill:none;}.cls-2{clip-path:url(#clip-path);}</style><clipPath id="clip-path"><rect class="cls-1" x="-0.5" y="5.1" width="202" height="190.8"/></clipPath></defs><title>Plan de travail 6 copie 3</title><g class="cls-2"><path d="M28.32,46.46A20.69,20.69,0,1,0,7.64,25.77,20.71,20.71,0,0,0,28.32,46.46Zm0-34.54A13.85,13.85,0,1,1,14.47,25.77,13.86,13.86,0,0,1,28.32,11.92Zm0,0"/></g><path d="M8.41,130.78v61.56a3.42,3.42,0,1,0,6.83,0V129a.76.76,0,0,0,0-.15,3.42,3.42,0,0,0-1.8-3,13.29,13.29,0,0,1-7.09-11.75V76.51a13.31,13.31,0,0,1,13.29-13.3H37.15a13.31,13.31,0,0,1,13.29,13.3v37.57a13.29,13.29,0,0,1-7.09,11.75,3.43,3.43,0,0,0-1.81,3.11v63.4a3.42,3.42,0,1,0,6.83,0V130.78a20.1,20.1,0,0,0,8.91-16.7V76.51A20.15,20.15,0,0,0,37.15,56.38H19.63A20.15,20.15,0,0,0-.5,76.51v37.57a20.07,20.07,0,0,0,8.91,16.7Zm0,0"/><path d="M93.8,93.15A20.69,20.69,0,1,0,73.11,72.46,20.71,20.71,0,0,0,93.8,93.15Zm0-34.54A13.86,13.86,0,1,1,80,72.46,13.87,13.87,0,0,1,93.8,58.61Zm0,0"/><path d="M79.27,159.52v32.82a3.42,3.42,0,0,0,6.84,0V157.76s0-.11,0-.16a3.42,3.42,0,0,0-1.81-3,13.33,13.33,0,0,1-7.09-11.76V123.2a13.3,13.3,0,0,1,13.29-13.29h6.75a13.3,13.3,0,0,1,13.29,13.29v19.61a13.31,13.31,0,0,1-7.09,11.76,3.42,3.42,0,0,0-1.81,3.11v34.66a3.42,3.42,0,0,0,6.84,0V159.51a20.13,20.13,0,0,0,8.9-16.7V123.2a20.15,20.15,0,0,0-20.13-20.13H90.49A20.15,20.15,0,0,0,70.36,123.2v19.61a20.13,20.13,0,0,0,8.91,16.71Zm0,0"/><path d="M163,57.23a20.69,20.69,0,1,0-20.69-20.68A20.7,20.7,0,0,0,163,57.23Zm0-34.54a13.86,13.86,0,1,1-13.85,13.86A13.88,13.88,0,0,1,163,22.69Zm0,0"/><path d="M128.48,143.05h20v49.3a3.42,3.42,0,0,0,6.84,0V139.63a3.84,3.84,0,0,0-.07-.69c0-.11-.05-.22-.09-.33a3.42,3.42,0,0,0-3.26-2.4H134l15.49-31a3.38,3.38,0,0,0,.36-1.53V87.13a13.15,13.15,0,0,1,26.3,0V103.7a3.38,3.38,0,0,0,.36,1.53l15.49,31H174.26a3.42,3.42,0,0,0-3.26,2.4,2,2,0,0,0-.09.33,3.84,3.84,0,0,0-.07.69v52.72a3.42,3.42,0,0,0,6.84,0v-49.3h19.86a3.43,3.43,0,0,0,3.06-5L183,102.9V87.13a20,20,0,0,0-40,0V102.9l-17.61,35.2a3.43,3.43,0,0,0,.16,3.33,3.4,3.4,0,0,0,2.9,1.62Zm0,0"/></svg>