<svg id="Calque_1" data-name="Calque 1" xmlns="http://www.w3.org/2000/svg" xmlns:xlink="http://www.w3.org/1999/xlink" viewBox="0 0 201 201"><defs><style>.cls-1{fill:none;}.cls-2{clip-path:url(#clip-path);}</style><clipPath id="clip-path"><rect class="cls-1" x="26.51" y="1.57" width="147.98" height="197.85"/></clipPath></defs><title>Plan de travail 6 copie 4</title><g class="cls-2"><path d="M164.36,87.73a13.18,13.18,0,0,0-12.89-10.52h-29.6V55.72a19.74,19.74,0,0,0,6.77,4,13.16,13.16,0,0,0,26.12-2.23V44.13a6.58,6.58,0,0,0,4.54-8.82l-4.74-11.85c-.19-.57-.38-1.1-.57-1.61a11.51,11.51,0,0,0-7.45-20.28h-14.8A16.46,16.46,0,0,0,115.3,18V32.94a13.11,13.11,0,0,0-6.58-1.77h-44a21.29,21.29,0,0,0-8.34,1.69,21.63,21.63,0,0,0-7.06,4.82,22.5,22.5,0,0,0-2.71,27.87L61.84,88.92a67.12,67.12,0,0,0-2.45,17.88v34.81L27.47,173.53a3.33,3.33,0,0,0-1,2.33,3.29,3.29,0,0,0,1,2.32L45.28,196a11.16,11.16,0,0,0,15.08,0,9.87,9.87,0,0,0,0-14l-2.89-2.89,27.27-27.27a3.29,3.29,0,0,0,1-2.33V129.82h.92l5.66,17v48.79a3.29,3.29,0,0,0,3.29,3.29h23.86a9,9,0,0,0,2.85-17.58l-3.69-1.24v-33.8a3.49,3.49,0,0,0-.1-.79l-9.77-39.07V99.9a16.47,16.47,0,0,0,3.29.33h17.4a22.86,22.86,0,0,0-1,6.57v6.58a3.29,3.29,0,0,0,3.29,3.29h13.15a3.29,3.29,0,0,0,3.29-3.29V106.8a3.29,3.29,0,0,1,6.58,0v88.79a3.29,3.29,0,0,0,3.29,3.29H171.2a3.29,3.29,0,0,0,3.29-3.29V106.8a23.12,23.12,0,0,0-10.13-19.07Zm-6.31,2.63v6.58h-8.51l-2.32-2.33a3.32,3.32,0,0,0-2.33-1V83.78h6.58a6.6,6.6,0,0,1,6.58,6.58Zm-9.87-32.88a6.58,6.58,0,0,1-13.15,0V50.9a6.59,6.59,0,0,1,6.58-6.58h6.57Zm.17-31.85a1.34,1.34,0,0,0,.07.18l4.77,11.94H141.61A13.16,13.16,0,0,0,128.45,50.9v1.52A13.22,13.22,0,0,1,121.87,41V36.84c3.88-1.46,11-5.08,12.78-12.25h3.67v6.58h6.57V24.59h1.65A11.28,11.28,0,0,0,148,24.5c.13.36.26.74.39,1.13ZM121.87,18a9.88,9.88,0,0,1,9.87-9.87h14.8a4.94,4.94,0,0,1,0,9.87h-14.8a3.28,3.28,0,0,0-3.29,3.28c0,4.16-3.57,6.84-6.58,8.37ZM54,42.28a15,15,0,0,1,4.92-3.36,14.53,14.53,0,0,1,5.78-1.17H92.63a4.71,4.71,0,0,0-.33.45l-6.48,9.41H60.27a3.29,3.29,0,0,0-2.75,5.09L69.64,71.26a65.77,65.77,0,0,0-5.07,9.79L52.09,62A15.89,15.89,0,0,1,54,42.28ZM73.63,65.34,66.35,54.19h15Zm-17.92,126a4.57,4.57,0,0,1-5.78,0L34.45,175.86l5.21-5.22,16.05,16.05a3.3,3.3,0,0,1,0,4.65Zm66.17-1.48a2.45,2.45,0,0,1-2.45,2.44H98.86v-6.57h15.9l5.44,1.81a2.43,2.43,0,0,1,1.67,2.32ZM112,179.15H98.86V146.26a3.38,3.38,0,0,0-.17-1l-6.58-19.73A3.29,3.29,0,0,0,89,123.24H82.41a3.29,3.29,0,0,0-3.28,3.29v21.66L52.82,174.5,44.31,166,65,145.3A3.31,3.31,0,0,0,66,143V110.09h36.9L112,146.67Zm-9.87-75.64H66.06A60.22,60.22,0,0,1,76.29,73.1s19.28-28,19.28-28V83.78a16.42,16.42,0,0,0,6.57,13.15Zm.45-16.8a9.64,9.64,0,0,1-.45-2.93V44.32a6.6,6.6,0,0,1,5.2-6.43l.58.12.06-.22a6.12,6.12,0,0,1,.74,0,6.58,6.58,0,0,1,6.58,6.57V80.5a3.28,3.28,0,0,0,3.29,3.28h19.73v9.87H112a9.88,9.88,0,0,1-9.42-6.94Zm39,23.38H135V106.8a16.49,16.49,0,0,1,1.37-6.57h7.13l.31.31a9.79,9.79,0,0,0-2.23,6.26Zm26.3,82.21h-6.57V106.8a9.73,9.73,0,0,0-.57-3.29h.57a3.28,3.28,0,0,0,3.28-3.28V97a16.45,16.45,0,0,1,3.29,9.85Zm0,0"/></g></svg>