<svg id="Calque_1" data-name="Calque 1" xmlns="http://www.w3.org/2000/svg" viewBox="0 0 201 201"><title>Plan de travail 6 copie 5</title><path d="M185.69,154.09l-35.82-35.82a6.44,6.44,0,0,0-7.89-1L121.86,97.19a2.64,2.64,0,0,0-3.74,3.73l20,20-7.36,7.36L94.09,91.61l7.36-7.36,4.91,4.91a2.64,2.64,0,0,0,3.73-3.74l-4.9-4.9L118,67.75l1,1a6.63,6.63,0,0,0,9.39,0l4.71-4.7a6.65,6.65,0,0,0,0-9.39L97,18.57a6.63,6.63,0,0,0-9.39,0l-4.71,4.7a6.66,6.66,0,0,0,0,9.4l1,1L43.52,74l-1-1a6.68,6.68,0,0,0-9.4,0l-4.7,4.71a6.63,6.63,0,0,0,0,9.39l36.09,36.1a6.66,6.66,0,0,0,9.4,0l4.7-4.71h0a6.65,6.65,0,0,0,0-9.39l-1-1L90.36,95.35l36.79,36.79a6.44,6.44,0,0,0,1,7.89l35.82,35.82a6.46,6.46,0,0,0,9.13,0l12.63-12.63a6.46,6.46,0,0,0,0-9.13ZM86.6,27l4.7-4.71a1.36,1.36,0,0,1,1.93,0l36.09,36.1a1.35,1.35,0,0,1,.4,1,1.31,1.31,0,0,1-.4,1L124.62,65a1.41,1.41,0,0,1-1.93,0L86.6,28.93a1.33,1.33,0,0,1-.4-1A1.35,1.35,0,0,1,86.6,27ZM74.87,114.78l-4.71,4.7a1.38,1.38,0,0,1-1.92,0L32.14,83.39a1.36,1.36,0,0,1,0-1.93l4.71-4.7a1.35,1.35,0,0,1,1.92,0l36.1,36.1A1.36,1.36,0,0,1,74.87,114.78Zm13.62-25h0L73.86,104.38,47.25,77.77,87.61,37.41,114.22,64,99.59,78.65h0ZM182,159.48l-12.64,12.64a1.18,1.18,0,0,1-1.66,0L131.85,136.3a1.16,1.16,0,0,1,0-1.66l.76-.77h0L144.48,122a1.16,1.16,0,0,1,1.66,0L182,157.82a1.18,1.18,0,0,1,0,1.66Z"/><path d="M113.71,161h-4V147.05a5.64,5.64,0,0,0-5.63-5.63H58.51a2.65,2.65,0,0,0,0,5.29H104a.34.34,0,0,1,.35.34V161H34.22V147.05a.34.34,0,0,1,.34-.34h7.36a2.65,2.65,0,0,0,0-5.29H34.56a5.63,5.63,0,0,0-5.62,5.63V161H24.89a11.48,11.48,0,0,0-11.47,11.47V180a4.42,4.42,0,0,0,4.42,4.42H120.76a4.42,4.42,0,0,0,4.42-4.42v-7.52A11.49,11.49,0,0,0,113.71,161Zm6.19,18.13H18.7v-6.66a6.2,6.2,0,0,1,6.19-6.19h88.82a6.2,6.2,0,0,1,6.19,6.19v6.66Z"/></svg>