<svg id="Calque_1" data-name="Calque 1" xmlns="http://www.w3.org/2000/svg" viewBox="0 0 201 201"><defs><style>.cls-1{fill:#201700;}</style></defs><title>Plan de travail 6 copie 6</title><path class="cls-1" d="M123.84,82.59H112.09A5.09,5.09,0,0,0,107,87.67V99.43a5.09,5.09,0,0,0,5.09,5.09h11.75a5.09,5.09,0,0,0,5.09-5.09V87.67a5.08,5.08,0,0,0-5.09-5.08Zm0,0"/><path class="cls-1" d="M158.79,82.59H147A5.09,5.09,0,0,0,142,87.67V99.43a5.09,5.09,0,0,0,5.09,5.09h11.75a5.09,5.09,0,0,0,5.09-5.09V87.67a5.08,5.08,0,0,0-5.09-5.08Zm0,0"/><path class="cls-1" d="M54.29,149.86H42.51A5.08,5.08,0,0,0,37.43,155v11.76a5.07,5.07,0,0,0,5.08,5.08H54.27a5.08,5.08,0,0,0,5.09-5.08V155a5.06,5.06,0,0,0-5.07-5.09Zm0,0"/><path class="cls-1" d="M89.24,149.86H77.48A5.08,5.08,0,0,0,72.4,155v11.76a5.07,5.07,0,0,0,5.08,5.08H89.24a5.08,5.08,0,0,0,5.09-5.08V155a5.09,5.09,0,0,0-5.09-5.09Zm0,0"/><path class="cls-1" d="M42.18,138.1H53.94A5.08,5.08,0,0,0,59,133V121.26a5.09,5.09,0,0,0-5.09-5.09H42.18a5.09,5.09,0,0,0-5.08,5.09V133a5.08,5.08,0,0,0,5.08,5.08Zm0,0"/><path class="cls-1" d="M77.14,138.1H88.89A5.08,5.08,0,0,0,94,133V121.26a5.09,5.09,0,0,0-5.09-5.09H77.14a5.09,5.09,0,0,0-5.09,5.09V133a5.08,5.08,0,0,0,5.09,5.08Zm0,0"/><path class="cls-1" d="M123.84,116.15H112.09a5.09,5.09,0,0,0-5.09,5.09V133a5.08,5.08,0,0,0,5.09,5.08h11.75a5.08,5.08,0,0,0,5.09-5.08V121.24a5.09,5.09,0,0,0-5.09-5.09Zm0,0"/><path class="cls-1" d="M158.79,116.15H147a5.09,5.09,0,0,0-5.09,5.09V133a5.08,5.08,0,0,0,5.09,5.08h11.75a5.08,5.08,0,0,0,5.09-5.08V121.24a5.09,5.09,0,0,0-5.09-5.09Zm0,0"/><path class="cls-1" d="M12.59,194.72H188.41a5.09,5.09,0,0,0,5.09-5.09v-163a5.09,5.09,0,0,0-5.09-5.08H170.35V39.3a11.22,11.22,0,0,1-11.19,11.19H146.71A11.22,11.22,0,0,1,135.52,39.3V21.58H117.9V39.3a11.21,11.21,0,0,1-11.19,11.19H94.26A11.21,11.21,0,0,1,83.08,39.3V21.58H65.46V39.3A11.22,11.22,0,0,1,54.27,50.49H41.82A11.22,11.22,0,0,1,30.63,39.3V21.58h-18A5.09,5.09,0,0,0,7.5,26.66v163a5.09,5.09,0,0,0,5.09,5.09Zm8-121.67H180.4V181.64H20.58Zm0,0"/><path class="cls-1" d="M41.84,6.28a5.09,5.09,0,0,0-5.09,5.09V39.28a5.09,5.09,0,0,0,5.09,5.08H54.29a5.09,5.09,0,0,0,5.09-5.08V11.37a5.09,5.09,0,0,0-5.09-5.09Zm0,0"/><path class="cls-1" d="M94.26,6.28a5.09,5.09,0,0,0-5.08,5.09V39.28a5.09,5.09,0,0,0,5.08,5.08h12.45a5.09,5.09,0,0,0,5.09-5.08V11.37a5.09,5.09,0,0,0-5.09-5.09Zm0,0"/><path class="cls-1" d="M159.14,6.28H146.69a5.09,5.09,0,0,0-5.09,5.09V39.28a5.09,5.09,0,0,0,5.09,5.08h12.45a5.09,5.09,0,0,0,5.09-5.08V11.37a5.09,5.09,0,0,0-5.09-5.09Zm0,0"/></svg>