<svg id="Calque_1" data-name="Calque 1" xmlns="http://www.w3.org/2000/svg" viewBox="0 0 201 201"><defs><style>.cls-1{fill:#4d4d4d;}</style></defs><title>Plan de travail 6 copie 7</title><path class="cls-1" d="M130.5,172c-6.57-.2-13.12-.27-19.55,1.46-1.49.4-3.55,1-4.37-.73-1-2.14,1.23-3,2.54-4,3.11-2.36,6.74-3.64,10.4-4.83,17.2-5.58,34.44-11,51.55-16.85,9.7-3.3,11.16-8.88,4.85-17.11-4.08-5.33-8.5-10.4-12.76-15.59-.7-.85-1.66-1.71-1-3s1.89-1,3-.83c12.1,1.25,31.57,18.51,34.55,30.62,2.63,10.7-1.63,19-11.92,23.67-7.3,3.31-15.12,4-22.89,4.82-5.72.63-11.49.72-17.2,1.38A139.88,139.88,0,0,1,130.5,172Z"/><path class="cls-1" d="M91.91,164.24a29.46,29.46,0,0,1-12.63-2c-4.83-1.85-6.87-5.8-5.32-10.72a44,44,0,0,0,2-14.18c-.09-4.53-2-7.18-6.65-7.85-2.12-.31-4.85-.34-5.5-3-.75-3.08,1.85-4.56,3.85-6,3.1-2.29,6.32-4.43,10.45-4.31,3.49.11,5.31,1.61,3.85,5.17-3,7.17-1.6,14.16.7,21.08,1.95,5.87,5.73,7.63,11.17,4.59,5.84-3.27,11.14-7.49,16.86-11a147.59,147.59,0,0,1,35.74-16.17c2.08-.61,4.89-2.19,6.3-.35,1.69,2.2-.79,4.42-2.2,6.22-5.85,7.51-13.31,13.32-20.65,19.22-5.24,4.21-10.84,8-16.08,12.16A31.32,31.32,0,0,1,91.91,164.24Z"/><path class="cls-1" d="M35,72c3.44-.29,3.77,2.31,4.27,4.67,2.94,14,5.71,27.94,8.8,41.85,3.26,14.71,7.39,29.19,11.65,43.64a30.82,30.82,0,0,0,2,4.35c.67,1.41,2,2.94.15,4.25a3.27,3.27,0,0,1-4.77-.57c-4.9-6.7-11.55-12.29-14.76-20C34,130,27.91,109,21.69,88.16,19.34,80.29,26.37,72.05,35,72Z"/><path class="cls-1" d="M143.34,83.26c.56,5-1.68,9.38-5.4,13.27-3.1,3.24-2.77,4.76,1.5,6.55,2.5,1,5.14,1.77,7.7,2.7.88.32,1.92.69,1.92,1.86s-1.06,1.53-2,1.64c-12.61,1.52-24.58.15-35-7.91-2.61-2-2.91-3.78.68-5,2-.67,3.88-1.51,5.87-2.12,6.8-2.09,9.65-7.21,9.93-13.77.28-6.35-3.12-10.8-8.5-14-2-1.2-6.12-1.26-5.3-4.29.64-2.39,4.42-1.8,6.94-1.83C135.51,60.14,143.17,68.07,143.34,83.26Z"/><path class="cls-1" d="M.61,124.16a104,104,0,0,1,6-28.86,11.13,11.13,0,0,1,1.56-3c.81-1.1,1.56-2.84,3.29-2.1,1.44.62,1,2.26.75,3.45-1.32,6.78.06,13.39,1.3,20,1.46,7.78,4.86,14.55,11.86,18.93,3.17,2,1.66,3.12-.62,4.21C12,142.89-.81,136.32.61,124.16Z"/><path class="cls-1" d="M13.41,46.71c-.12-3.58,1.73-7.63,4-11.51,1.57-2.64,3.18-2.26,4.59.17a72.21,72.21,0,0,1,8.31,21.84c.71,3.42-1.46,5.83-4.33,7.26-3.2,1.59-6,.35-8-2.31C14.88,57.93,13.46,53.06,13.41,46.71Z"/><path class="cls-1" d="M113.47,40.15c.78-3.1,1.76-7.11,2.78-11.12.46-1.77,1.65-2.23,3.3-1.64a11.22,11.22,0,0,1,5.59,4.3A33.2,33.2,0,0,1,130.36,46c.72,4.67-2.55,7.21-7.07,5.93C115.46,49.69,113.28,47.3,113.47,40.15Z"/><path class="cls-1" d="M74.41,73.87c5.57.64,11,1.39,16.35,1.83,4.36.36,4.9,3,4.11,6.34A8.39,8.39,0,0,1,86,87.88c-5.58-1-10.82-2.93-14.54-7.58-1.19-1.49-2.66-3.14-1.62-5.15S72.91,74,74.41,73.87Z"/><path class="cls-1" d="M86.26,48.83c4.08,1,8.72,2.15,12.85,4.63,2.51,1.5,3.31,4.21,3.64,7,.38,3.22-1.22,4.7-4.43,4.71-5.85,0-14.53-7-15.93-12.75C81.66,49.34,83.13,48.68,86.26,48.83Z"/><path class="cls-1" d="M151.1,53.62a28.31,28.31,0,0,1,3.8,0c2.53.35,2.93,1.79,1.37,3.62-2.05,2.42-4.09,4.92-6.83,6.6-3.18,1.95-6.06,1.82-8.11-1.74-1.73-3-.51-5.81,3.22-7.61A13.47,13.47,0,0,1,151.1,53.62Z"/><path class="cls-1" d="M158.23,75.57c2.26.42,5-.8,5.68,2,.62,2.37-1.48,3.78-3.27,4.77-3.3,1.85-6.73,4.28-10.42.71a4.51,4.51,0,0,1-1.64-4.28c.39-1.75,2-1.89,3.38-2.14C154.16,76.2,156.36,75.87,158.23,75.57Z"/></svg>