<svg id="Calque_1" data-name="Calque 1" xmlns="http://www.w3.org/2000/svg" viewBox="0 0 200 200"><title>Plan de travail 3 copie</title><path d="M146.07,57.1H58.9A14.12,14.12,0,0,0,44.79,71.21v59.58A14.12,14.12,0,0,0,58.9,144.9H146a14.12,14.12,0,0,0,14.11-14.11V71.24A14.11,14.11,0,0,0,146.07,57.1Zm7.66,73.69a7.67,7.67,0,0,1-7.66,7.66H58.9a7.67,7.67,0,0,1-7.67-7.66V71.24a7.68,7.68,0,0,1,7.67-7.67H146a7.68,7.68,0,0,1,7.67,7.67v59.55Zm0,0"/><path d="M117.54,100.26,145.76,75a3.23,3.23,0,1,0-4.32-4.8l-38.91,34.92L94.94,98.3s0,0,0-.07a5.59,5.59,0,0,0-.52-.45L63.48,70.14A3.23,3.23,0,0,0,59.18,75l28.55,25.52L59.3,127.09a3.23,3.23,0,0,0-.14,4.56,3.23,3.23,0,0,0,4.56.17l28.86-27,7.82,7a3.25,3.25,0,0,0,2.15.82,3.2,3.2,0,0,0,2.15-.84l8-7.21,28.69,27.26a3.18,3.18,0,0,0,2.22.88,3.22,3.22,0,0,0,2.22-5.56Zm0,0"/><path d="M103,5a97,97,0,1,0,97,97A97,97,0,0,0,103,5Zm0,181.87A84.87,84.87,0,1,1,187.87,102,85,85,0,0,1,103,186.87Z"/></svg>