<svg id="Calque_1" data-name="Calque 1" xmlns="http://www.w3.org/2000/svg" viewBox="0 0 200 200"><title>Plan de travail 3</title><path d="M103,5a97,97,0,1,0,97,97A97,97,0,0,0,103,5Zm0,181.87A84.87,84.87,0,1,1,187.87,102,85,85,0,0,1,103,186.87Z"/><path d="M158.19,132.28a15.37,15.37,0,0,0-9.38-8.86l-14.34-3.92a14.08,14.08,0,0,0-12.28,3.22L117,127.91A55.05,55.05,0,0,1,78.28,89.17L83.46,84A14.08,14.08,0,0,0,86.67,71.7L82.76,57.36A15.34,15.34,0,0,0,73.89,48l-1.63-.54a13,13,0,0,0-12.12,2.87l-7.77,7.76c-1.39,1.38-2.28,5.32-2.28,5.33a91.6,91.6,0,0,0,92.44,92.66c.14,0,4.2-.87,5.58-2.25l7.77-7.77a13,13,0,0,0,2.85-12.1Z"/></svg>